<?xml version="1.0" standalone="no"?><svg xmlns="http://www.w3.org/2000/svg" viewBox="0 0 1440 320"><path fill="#e6d6e7" fill-opacity="1" d="M0,320L40,288C80,256,160,192,240,181.3C320,171,400,213,480,229.3C560,245,640,235,720,202.7C800,171,880,117,960,122.7C1040,128,1120,192,1200,192C1280,192,1360,128,1400,96L1440,64L1440,320L1400,320C1360,320,1280,320,1200,320C1120,320,1040,320,960,320C880,320,800,320,720,320C640,320,560,320,480,320C400,320,320,320,240,320C160,320,80,320,40,320L0,320Z"></path></svg>